<?xml version="1.0" encoding="iso-8859-1"?>
<!-- Generator: Adobe Illustrator 19.0.0, SVG Export Plug-In . SVG Version: 6.00 Build 0)  -->
<svg version="1.1" id="Layer_1" xmlns="http://www.w3.org/2000/svg" xmlns:xlink="http://www.w3.org/1999/xlink" x="0px" y="0px"
	 viewBox="0 0 512 512" style="enable-background:new 0 0 512 512;" xml:space="preserve">
<circle style="fill:#40A459;" cx="256" cy="256" r="247.916"/>
<path style="fill:#378B4E;" d="M256,8.084c-1.886,0-3.764,0.029-5.641,0.071c-0.477,0.011-0.954,0.022-1.43,0.036
	c-1.788,0.05-3.573,0.115-5.352,0.203c-0.46,0.023-0.917,0.054-1.376,0.079c-1.353,0.074-2.703,0.161-4.051,0.257
	c-0.678,0.049-1.356,0.095-2.032,0.149c-1.563,0.124-3.123,0.262-4.678,0.415c-0.804,0.08-1.605,0.168-2.406,0.254
	c-0.961,0.105-1.922,0.215-2.88,0.33c-0.831,0.1-1.663,0.196-2.491,0.304c121.64,15.846,215.579,119.858,215.579,245.817
	s-93.939,229.971-215.579,245.817c0.829,0.108,1.66,0.205,2.491,0.304c0.958,0.115,1.919,0.225,2.88,0.33
	c0.802,0.087,1.603,0.176,2.406,0.254c1.555,0.153,3.114,0.291,4.678,0.415c0.676,0.054,1.354,0.101,2.032,0.149
	c1.347,0.096,2.697,0.182,4.051,0.257c0.459,0.026,0.917,0.056,1.376,0.079c1.779,0.087,3.564,0.153,5.352,0.203
	c0.476,0.014,0.953,0.025,1.43,0.036c1.876,0.042,3.754,0.071,5.641,0.071c136.921,0,247.916-110.996,247.916-247.916
	S392.921,8.084,256,8.084z"/>
<path style="fill:#898790;" d="M223.663,234.442l103.422-59.35c0,0,113.134,24.097,139.245-23.548l8.235-15.027l7.162,15.567
	c14.868,32.323,22.728,68.256,22.728,103.916c0,82.195-40.713,159.005-108.909,205.463l-7.037,4.794L223.663,234.442z"/>
<path style="fill:#7A797F;" d="M503.916,256c0-42.842-10.868-83.146-29.997-118.305l-7.589,13.849
	c-9.172,16.736-21.243,33.85-33.274,49.246c4.039,17.756,6.186,36.232,6.186,55.211c0,69.234-28.386,131.831-74.148,176.807
	l23.149,33.644C457.789,422.54,503.916,344.329,503.916,256z"/>
<path style="fill:#3D9AE3;" d="M256,504.455c-84.878,0-163.059-42.782-209.133-114.441l-4.393-6.833l138.074-116.402l158.914,223.34
	l-10.127,3.285C305.645,500.737,280.972,504.455,256,504.455z"/>
<path style="fill:#1D81CE;" d="M340.465,489.729l-16.807-24.064c-29.668,18.763-63.691,31.944-100.098,36.687
	c10.585,1.379,21.478,1.564,32.439,1.564C285.55,503.916,314.185,499.214,340.465,489.729z"/>
<path style="fill:#FFFFFF;" d="M180.547,266.779l43.116-32.337l165.771,231.255l-8.057,4.729
	c-11.384,6.681-23.363,12.482-35.608,17.242l-6.308,2.452L180.547,266.779z"/>
<path style="fill:#E0E0E3;" d="M339.461,490.119c17.663-6.284,34.412-14.503,49.972-24.422l-23.889-33.326
	c-13,12.842-27.415,24.256-42.988,33.99L339.461,490.119z"/>
<path style="fill:#FFCE00;" d="M38.261,375.557c-6.804-12.343-12.582-25.343-17.174-38.639l-2.05-7.821l290.858-202.444
	l43.116,32.337L42.474,383.18L38.261,375.557z"/>
<path style="fill:#CD2900;" d="M379.118,250.386c-15.25-15.926-91.32-97.783-91.32-145.292c0-53.789,43.76-97.549,97.549-97.549
	s97.549,43.76,97.549,97.549c0,47.476-76.071,129.358-91.321,145.292l-6.228,6.507L379.118,250.386z"/>
<path style="fill:#891D00;" d="M385.347,137.971c-24.072,0-43.655-19.583-43.655-43.655s19.583-43.655,43.655-43.655
	s43.655,19.583,43.655,43.655S409.419,137.971,385.347,137.971z"/>
<path style="fill:#FFFFFF;" d="M148.211,188.632c28.231,0,51.2-22.969,51.2-51.2c0-4.465-3.62-8.084-8.084-8.084h-32.337
	c-4.465,0-8.084,3.62-8.084,8.084c0,4.465,3.62,8.084,8.084,8.084H182.3c-3.658,15.432-17.555,26.947-34.089,26.947
	c-19.316,0-35.032-15.716-35.032-35.032c0-19.316,15.716-35.032,35.032-35.032c8.54,0,16.766,3.108,23.162,8.749
	c3.35,2.955,8.458,2.633,11.411-0.715c2.953-3.348,2.633-8.457-0.715-11.411c-9.352-8.249-21.376-12.792-33.858-12.792
	c-28.231,0-51.2,22.969-51.2,51.2S119.979,188.632,148.211,188.632z"/>
<path d="M385.347,145.516c28.231,0,51.2-22.969,51.2-51.2s-22.969-51.2-51.2-51.2s-51.2,22.969-51.2,51.2
	S357.116,145.516,385.347,145.516z M385.347,59.284c19.316,0,35.032,15.716,35.032,35.032s-15.716,35.032-35.032,35.032
	s-35.032-15.716-35.032-35.032S366.031,59.284,385.347,59.284z"/>
<path d="M482.827,137.256c4.751-11.462,7.615-22.413,7.615-32.161C490.442,47.145,443.297,0,385.347,0
	c-18.027,0-35.006,4.564-49.847,12.594C309.911,4.242,283.169,0,256,0C187.62,0,123.333,26.628,74.981,74.981S0,187.62,0,256
	s26.628,132.667,74.981,181.019S187.62,512,256,512s132.667-26.628,181.019-74.981S512,324.379,512,256
	C512,214.65,501.904,173.641,482.827,137.256z M385.347,16.168c49.035,0,88.926,39.892,88.926,88.926
	c0,38.466-59.61,108.698-88.927,139.329c-29.318-30.62-88.925-100.836-88.925-139.329C296.421,56.06,336.313,16.168,385.347,16.168z
	 M16.168,256C16.168,123.756,123.756,16.168,256,16.168c21.143,0,42.004,2.74,62.197,8.147
	c-23.169,19.294-37.944,48.342-37.944,80.78c0,9.332,2.633,19.77,7.026,30.7L24.276,317.872
	C18.998,298.125,16.168,277.389,16.168,256z M256,495.832c-84.643,0-159.183-44.077-201.88-110.482l69.756-50.976
	c3.965-2.897,4.41-8.649,0.937-12.121c-0.039-0.039-0.078-0.078-0.115-0.115c-2.79-2.79-7.196-3.13-10.381-0.803l-68.503,50.061
	c-6.536-11.858-12.097-24.324-16.576-37.291L294.154,150.7c4.676,9.064,10.246,18.274,16.281,27.317l-164.074,119.9
	c-3.964,2.897-4.41,8.649-0.937,12.122c0.039,0.039,0.078,0.078,0.115,0.115c2.79,2.79,7.196,3.13,10.381,0.803l32.363-23.649
	l138.502,197.858C304.402,492.094,280.63,495.832,256,495.832z M342.644,479.63L201.34,277.766l30.443-22.247l145.228,207.469
	C366.076,469.406,354.592,474.985,342.644,479.63z M390.69,454.337L244.839,245.978l74.839-54.69
	c26.752,36.915,57.669,68.139,59.943,70.42c1.517,1.522,3.578,2.378,5.726,2.378s4.209-0.855,5.726-2.378
	c2.985-2.994,55.336-55.869,82.819-106.018c14.38,31.26,21.939,65.657,21.939,100.311
	C495.832,338.351,454.105,411.134,390.69,454.337z"/>
<g>
</g>
<g>
</g>
<g>
</g>
<g>
</g>
<g>
</g>
<g>
</g>
<g>
</g>
<g>
</g>
<g>
</g>
<g>
</g>
<g>
</g>
<g>
</g>
<g>
</g>
<g>
</g>
<g>
</g>
</svg>
